<?xml version="1.0" encoding="utf-8"?>
<!-- Generator: Adobe Illustrator 27.3.1, SVG Export Plug-In . SVG Version: 6.00 Build 0)  -->
<svg version="1.1" id="Layer_1" xmlns="http://www.w3.org/2000/svg" xmlns:xlink="http://www.w3.org/1999/xlink" x="0px" y="0px"
	 viewBox="0 0 500 349" style="enable-background:new 0 0 500 349;" xml:space="preserve">
<style type="text/css">
	.st0{fill:#08FFFF;}
	.st1{fill:#FF06FF;}
	.st2{fill:#FFFFFF;}
</style>
<g id="OBJECTS">
	<g>
		<g>
			<g>
				<g>
					<g>
						<path class="st0" d="M164.6,182.3h-40.1v-22.8l37.9-115.2h25.9v115.2h12v22.8h-12v38.4h-23.8V182.3z M146.6,159.5h18V99.1
							h-1.4l-1.4,5.3L146.6,159.5z"/>
						<path class="st0" d="M278.8,184.5c-0.2,7.2-1.7,13.7-4.3,19.2c-2.2,4.8-5.5,9.4-10.3,13c-4.8,3.8-11.3,6-19.9,6
							s-15.4-2.2-20.2-6c-4.8-3.6-7.9-8.2-10.1-13c-2.6-5.5-4.1-12-4.3-19.2V80.6c0.2-7,1.7-13.4,4.3-19c2.2-4.8,5.3-9.6,10.1-13.2
							c4.8-3.6,11.5-6,20.2-6s15.1,2.4,19.9,6s8.2,8.4,10.3,13.2c2.6,5.5,4.1,12,4.3,19V184.5z M252.9,80.6c0-4.8-1-8.2-3.4-11
							c-1.2-1.2-3.1-1.9-5.3-1.9c-4.6,0-6.7,3.4-7.7,6.5c-0.7,1.9-1,4.1-1,6.5v103.9c0,5,1.2,8.4,3.6,11c1.2,1.2,2.9,1.9,5,1.9
							c4.6,0,6.7-2.9,7.7-6.5c0.7-1.7,1-3.8,1-6.5V80.6z"/>
						<path class="st0" d="M329.7,182.3h-40.1v-22.8l37.9-115.2h25.9v115.2h12v22.8h-12v38.4h-23.8V182.3z M311.7,159.5h18V99.1
							h-1.4l-1.4,5.3L311.7,159.5z"/>
					</g>
				</g>
				<g>
					<g>
						<path class="st1" d="M177.1,181.2h-40.1v-22.8L175,43.2h25.9v115.2h12v22.8h-12v38.4h-23.8V181.2z M159.1,158.4h18V97.9h-1.4
							l-1.4,5.3L159.1,158.4z"/>
						<path class="st1" d="M291.4,183.4c-0.2,7.2-1.7,13.7-4.3,19.2c-2.2,4.8-5.5,9.4-10.3,13c-4.8,3.8-11.3,6-19.9,6
							c-8.6,0-15.4-2.2-20.2-6c-4.8-3.6-7.9-8.2-10.1-13c-2.6-5.5-4.1-12-4.3-19.2V79.4c0.2-7,1.7-13.4,4.3-19
							c2.2-4.8,5.3-9.6,10.1-13.2c4.8-3.6,11.5-6,20.2-6c8.6,0,15.1,2.4,19.9,6c4.8,3.6,8.2,8.4,10.3,13.2c2.6,5.5,4.1,12,4.3,19
							V183.4z M265.4,79.4c0-4.8-1-8.2-3.4-11c-1.2-1.2-3.1-1.9-5.3-1.9c-4.6,0-6.7,3.4-7.7,6.5c-0.7,1.9-1,4.1-1,6.5v103.9
							c0,5,1.2,8.4,3.6,11c1.2,1.2,2.9,1.9,5,1.9c4.6,0,6.7-2.9,7.7-6.5c0.7-1.7,1-3.8,1-6.5V79.4z"/>
						<path class="st1" d="M342.2,181.2h-40.1v-22.8l37.9-115.2H366v115.2h12v22.8h-12v38.4h-23.8V181.2z M324.2,158.4h18V97.9h-1.4
							l-1.4,5.3L324.2,158.4z"/>
					</g>
				</g>
				<g>
					<g>
						<path class="st2" d="M169.8,179.1h-40.1v-22.8l37.9-115.2h25.9v115.2h12v22.8h-12v38.4h-23.8V179.1z M151.8,156.3h18V95.8
							h-1.4l-1.4,5.3L151.8,156.3z"/>
						<path class="st2" d="M284,181.2c-0.2,7.2-1.7,13.7-4.3,19.2c-2.2,4.8-5.5,9.4-10.3,13c-4.8,3.8-11.3,6-19.9,6
							s-15.4-2.2-20.2-6c-4.8-3.6-7.9-8.2-10.1-13c-2.6-5.5-4.1-12-4.3-19.2V77.3c0.2-7,1.7-13.4,4.3-19c2.2-4.8,5.3-9.6,10.1-13.2
							c4.8-3.6,11.5-6,20.2-6s15.1,2.4,19.9,6s8.2,8.4,10.3,13.2c2.6,5.5,4.1,12,4.3,19V181.2z M258.1,77.3c0-4.8-1-8.2-3.4-11
							c-1.2-1.2-3.1-1.9-5.3-1.9c-4.6,0-6.7,3.4-7.7,6.5c-0.7,1.9-1,4.1-1,6.5v103.9c0,5,1.2,8.4,3.6,11c1.2,1.2,2.9,1.9,5,1.9
							c4.6,0,6.7-2.9,7.7-6.5c0.7-1.7,1-3.8,1-6.5V77.3z"/>
						<path class="st2" d="M334.9,179.1h-40.1v-22.8l37.9-115.2h25.9v115.2h12v22.8h-12v38.4h-23.8L334.9,179.1L334.9,179.1z
							 M316.9,156.3h18V95.8h-1.4l-1.4,5.3L316.9,156.3z"/>
					</g>
				</g>
				<g>
					<rect x="95.6" y="61.2" class="st1" width="86.6" height="8.5"/>
					<rect x="248.1" y="206" class="st1" width="52" height="8.5"/>
					<rect x="356.4" y="83.3" class="st1" width="69" height="7.4"/>
					<rect x="185.6" y="83.3" class="st1" width="28.9" height="7.4"/>
					<rect x="318.8" y="53.9" class="st1" width="29" height="7.4"/>
					<rect x="205.9" y="115" class="st1" width="36.5" height="7.4"/>
					<rect x="324.2" y="189" class="st1" width="32.5" height="7.4"/>
					<rect x="104.1" y="155.1" class="st1" width="48.1" height="3.3"/>
					<rect x="351.3" y="129.8" class="st1" width="48.1" height="3.3"/>
					<rect x="232.3" y="146.8" class="st1" width="26.8" height="3.3"/>
					<rect x="145.7" y="133" class="st1" width="26.8" height="3.3"/>
					<rect x="132.3" y="196.3" class="st1" width="26.8" height="3.3"/>
				</g>
				<g>
					<rect x="83" y="62.4" class="st0" width="86.6" height="8.5"/>
					<rect x="235.6" y="207.1" class="st0" width="52" height="8.5"/>
					<rect x="343.8" y="84.4" class="st0" width="69" height="7.4"/>
					<rect x="173.1" y="84.4" class="st0" width="28.9" height="7.4"/>
					<rect x="306.2" y="55" class="st0" width="29" height="7.4"/>
					<rect x="193.4" y="116.1" class="st0" width="36.5" height="7.4"/>
					<rect x="311.7" y="190.1" class="st0" width="32.5" height="7.4"/>
					<rect x="91.5" y="156.3" class="st0" width="48.1" height="3.3"/>
					<rect x="338.8" y="130.9" class="st0" width="48.1" height="3.3"/>
					<rect x="219.8" y="148" class="st0" width="26.8" height="3.3"/>
					<rect x="133.2" y="134.2" class="st0" width="26.8" height="3.3"/>
					<rect x="119.8" y="197.4" class="st0" width="26.8" height="3.3"/>
				</g>
				<g>
					<rect x="88.2" y="59.1" class="st2" width="86.6" height="8.5"/>
					<rect x="240.7" y="203.8" class="st2" width="52" height="8.5"/>
					<rect x="349" y="81.1" class="st2" width="69" height="7.4"/>
					<rect x="178.2" y="81.1" class="st2" width="28.9" height="7.4"/>
					<rect x="311.4" y="51.7" class="st2" width="29" height="7.4"/>
					<rect x="198.6" y="112.8" class="st2" width="36.5" height="7.4"/>
					<rect x="316.9" y="186.8" class="st2" width="32.5" height="7.4"/>
					<rect x="96.7" y="153" class="st2" width="48.1" height="3.3"/>
					<rect x="343.9" y="127.6" class="st2" width="48.1" height="3.3"/>
					<rect x="224.9" y="144.7" class="st2" width="26.8" height="3.3"/>
					<rect x="138.4" y="130.9" class="st2" width="26.8" height="3.3"/>
					<rect x="125" y="194.2" class="st2" width="26.8" height="3.3"/>
				</g>
			</g>
		</g>
	</g>
</g>
<g id="DESIGNED_BY_FREEPIK">
</g>
</svg>
