<?xml version="1.0" standalone="no"?>
<!DOCTYPE svg PUBLIC "-//W3C//DTD SVG 20010904//EN"
 "http://www.w3.org/TR/2001/REC-SVG-20010904/DTD/svg10.dtd">
<svg version="1.0" xmlns="http://www.w3.org/2000/svg"
 width="847.000000pt" height="978.000000pt" viewBox="0 0 847.000000 978.000000"
 preserveAspectRatio="xMidYMid meet">

<g transform="translate(0.000000,978.000000) scale(0.100000,-0.100000)"
fill="#000000" stroke="none">
<path d="M4160 9754 c-19 -8 -44 -27 -55 -42 -19 -26 -20 -45 -23 -447 -2
-231 0 -439 3 -462 16 -113 171 -151 239 -60 21 28 21 38 21 485 0 514 3 495
-76 526 -48 19 -64 19 -109 0z"/>
<path d="M6752 8268 c-172 -172 -320 -326 -329 -342 -24 -45 -12 -102 30 -144
29 -28 45 -36 87 -40 l51 -5 330 329 329 329 0 45 c0 84 -57 140 -142 140 -42
0 -43 0 -356 -312z"/>
<path d="M1295 8552 c-81 -19 -129 -118 -91 -190 8 -15 153 -165 323 -334 340
-339 342 -340 420 -302 82 41 106 130 54 200 -37 50 -590 598 -616 611 -29 15
-67 21 -90 15z"/>
<path d="M3348 8355 c-116 -32 -200 -98 -246 -195 l-26 -57 -126 5 c-134 5
-198 -4 -290 -40 -214 -84 -361 -284 -388 -528 l-7 -65 -105 -21 c-184 -38
-292 -93 -384 -195 -63 -70 -100 -135 -133 -234 -37 -112 -38 -257 -1 -362
l24 -73 -65 -37 c-94 -54 -217 -180 -264 -270 -121 -232 -98 -513 57 -689 l44
-50 -44 -65 c-159 -228 -186 -454 -79 -658 60 -113 161 -213 288 -282 l51 -28
1 -188 c1 -177 2 -193 28 -270 75 -225 276 -391 497 -411 l75 -7 7 -60 c27
-222 140 -389 323 -476 190 -91 392 -102 536 -28 23 11 42 19 43 17 1 -2 13
-21 27 -43 84 -141 220 -217 384 -216 160 0 287 65 368 189 56 85 84 166 97
284 8 64 10 785 7 2328 -3 2410 0 2260 -51 2423 -51 161 -178 277 -336 307
-72 14 -255 11 -312 -5z m339 -177 c65 -24 109 -66 142 -138 58 -127 55 13 58
-2435 3 -1604 1 -2269 -7 -2315 -21 -125 -90 -235 -170 -273 -30 -14 -71 -22
-123 -25 -68 -4 -84 -1 -132 22 -97 48 -154 138 -181 288 -8 46 -17 89 -20 97
-2 8 -28 -17 -65 -63 -116 -146 -247 -180 -458 -119 -102 29 -176 81 -230 162
-47 70 -60 106 -72 206 -8 73 0 200 17 257 5 16 -6 14 -78 -13 -72 -27 -93
-30 -158 -27 -180 10 -333 150 -375 342 -21 95 -16 282 11 384 9 34 14 68 11
75 -3 7 -25 19 -48 26 -159 47 -313 178 -364 310 -24 62 -27 79 -23 153 3 51
14 105 27 140 29 76 119 209 194 285 l60 61 -60 30 c-79 40 -164 132 -193 209
-43 113 -25 283 40 398 65 112 215 223 350 259 49 12 55 17 52 37 -1 13 -20
53 -41 89 -50 84 -71 152 -72 227 -2 117 57 258 139 335 97 91 201 127 387
135 l130 6 0 121 c1 143 19 222 68 299 110 170 272 241 487 212 55 -7 128 -26
173 -43 l79 -31 -7 82 c-6 66 -4 91 10 122 21 51 60 92 105 112 85 36 242 36
337 1z"/>
<path d="M4783 8350 c-91 -24 -148 -57 -206 -119 -81 -86 -128 -211 -147 -383
-14 -134 -14 -4489 0 -4577 16 -95 48 -178 97 -253 65 -99 141 -152 260 -183
185 -48 377 29 485 197 17 26 35 48 40 48 5 0 23 -7 41 -17 163 -84 463 -41
632 91 120 94 204 252 222 416 l6 58 65 6 c132 14 254 72 353 168 94 91 144
186 175 328 15 70 18 246 5 322 l-8 48 56 31 c277 157 408 410 345 668 -22 87
-72 197 -129 277 l-45 66 43 48 c255 283 142 778 -221 968 -37 19 -50 31 -46
42 74 176 67 337 -22 518 -98 200 -261 303 -546 347 -37 6 -38 7 -38 49 0 62
-35 191 -72 266 -46 93 -169 214 -268 262 -108 54 -208 72 -350 65 l-115 -6
-18 44 c-24 57 -87 128 -143 161 -107 63 -306 82 -451 44z m457 -469 c0 -18 3
-19 30 -9 60 21 60 22 60 -236 0 -200 -2 -237 -16 -250 -12 -12 -37 -16 -109
-16 -72 0 -97 4 -109 16 -14 13 -16 50 -16 246 0 275 -2 268 97 268 56 0 63
-2 63 -19z m-380 -251 l0 -260 -30 0 -30 0 0 185 0 185 -26 0 c-15 0 -24 5
-22 13 36 132 39 137 74 137 l34 0 0 -260z m760 0 l0 -260 -25 0 -25 0 0 185
0 185 -29 0 -30 0 20 63 c12 34 22 68 25 75 2 6 17 12 34 12 l30 0 0 -260z
m224 233 c12 -10 21 -25 19 -33 -1 -8 -4 -104 -6 -212 l-4 -198 68 0 68 0 3
138 3 137 22 -70 c31 -100 39 -199 19 -230 -16 -24 -21 -25 -114 -25 -63 0
-102 4 -110 12 -13 13 -18 479 -5 491 9 10 12 9 37 -10z m-896 -809 c22 -15
22 -19 22 -249 0 -199 -2 -236 -16 -249 -12 -12 -37 -16 -106 -16 -135 0 -128
-16 -128 266 0 277 -6 264 125 264 57 0 87 -5 103 -16z m772 -4 c19 -19 20
-33 20 -244 0 -281 7 -268 -135 -264 -132 4 -126 -9 -123 269 4 268 -1 259
130 259 75 0 91 -3 108 -20z m750 0 c19 -19 20 -33 20 -243 0 -280 6 -267
-129 -267 -62 0 -101 4 -109 12 -9 9 -12 77 -12 247 0 286 -7 271 122 271 75
0 91 -3 108 -20z m-1210 -250 l0 -260 -25 0 -25 0 0 185 0 185 -29 0 -30 0 20
63 c12 34 22 68 25 75 2 6 17 12 34 12 l30 0 0 -260z m768 3 l-3 -258 -25 0
-25 0 -3 183 -2 182 -26 0 c-21 0 -25 4 -19 18 3 9 13 43 22 75 16 55 18 57
50 57 l33 0 -2 -257z m-1168 -823 l0 -260 -30 0 -30 0 0 180 0 180 -26 0 c-20
0 -25 4 -21 18 2 9 13 45 22 80 18 60 19 62 52 62 l33 0 0 -260z m452 243 c16
-15 18 -36 18 -246 0 -281 7 -267 -123 -267 -134 0 -127 -15 -127 263 0 281
-7 267 123 267 70 0 95 -4 109 -17z m308 -243 l0 -260 -25 0 -25 0 0 180 0
180 -31 0 c-21 0 -29 4 -25 13 2 6 14 42 26 80 20 63 23 67 50 67 l30 0 0
-260z m442 243 c16 -15 18 -36 18 -246 0 -281 7 -267 -123 -267 -134 0 -127
-15 -127 263 0 281 -7 267 123 267 70 0 95 -4 109 -17z m326 -245 l2 -258 -30
0 -30 0 0 180 0 180 -25 0 c-14 0 -25 3 -25 6 0 3 10 39 22 80 21 74 22 75 52
72 l31 -3 3 -257z m436 246 c14 -13 16 -50 16 -249 0 -199 -2 -236 -16 -249
-12 -12 -37 -16 -109 -16 -131 0 -125 -12 -125 265 0 277 -6 265 125 265 72 0
97 -4 109 -16z m-1900 -830 c14 -13 16 -50 16 -249 0 -199 -2 -236 -16 -249
-12 -12 -37 -16 -109 -16 -131 0 -125 -13 -125 269 0 275 -7 261 126 261 71 0
96 -4 108 -16z m314 -246 l2 -258 -30 0 -30 0 0 179 0 180 -28 3 -28 3 24 78
c24 77 25 78 56 75 l31 -3 3 -257z m454 245 c16 -15 18 -36 18 -246 0 -282 7
-267 -126 -267 -71 0 -96 4 -108 16 -14 13 -16 50 -16 249 0 199 2 236 16 249
23 23 190 23 216 -1z m308 -243 l0 -260 -30 0 -30 0 0 180 0 180 -26 0 c-19 0
-25 4 -20 15 3 9 13 41 22 73 21 73 20 72 55 72 l29 0 0 -260z m444 238 c13
-19 16 -60 16 -243 0 -277 6 -265 -125 -265 -72 0 -97 4 -109 16 -14 13 -16
50 -16 249 0 199 2 236 16 249 12 12 37 16 109 16 86 0 95 -2 109 -22z m314
-240 l2 -258 -30 0 -30 0 0 180 0 180 -25 0 c-14 0 -25 3 -25 6 0 3 10 39 22
80 21 74 22 75 52 72 l31 -3 3 -257z m-1450 -574 c22 -15 22 -19 22 -249 0
-199 -2 -236 -16 -249 -12 -12 -37 -16 -109 -16 -72 0 -97 4 -109 16 -14 13
-16 50 -16 249 0 278 -6 265 125 265 57 0 87 -5 103 -16z m754 -1 c16 -15 18
-36 18 -249 0 -198 -2 -235 -16 -248 -12 -12 -37 -16 -109 -16 -72 0 -97 4
-109 16 -14 13 -16 50 -16 249 0 230 0 234 22 249 33 23 184 22 210 -1z
m-1204 -250 l-3 -258 -27 -3 -28 -3 0 185 0 186 -25 0 c-27 0 -30 7 -15 42 5
13 14 42 20 66 10 39 13 42 46 42 l34 0 -2 -257z m762 -3 l0 -260 -25 0 -25 0
0 185 0 185 -29 0 -30 0 20 63 c12 34 22 68 25 75 2 6 17 12 34 12 l30 0 0
-260z m768 3 l-3 -258 -27 -3 -28 -3 0 185 0 186 -25 0 c-30 0 -30 -4 -4 81
21 68 22 69 55 69 l34 0 -2 -257z m-1374 -585 c13 -19 16 -60 16 -243 0 -277
6 -265 -125 -265 -72 0 -97 4 -109 16 -14 13 -16 50 -16 249 0 199 2 236 16
249 12 12 37 16 109 16 86 0 95 -2 109 -22z m757 12 c18 -10 19 -24 19 -250 0
-204 -2 -241 -16 -254 -12 -12 -37 -16 -105 -16 -134 0 -129 -11 -129 263 0
278 -5 267 121 267 50 0 99 -5 110 -10z m-451 -225 c0 -124 -2 -225 -4 -225
-2 0 -15 17 -30 38 -24 36 -26 45 -26 150 l0 112 -26 0 c-21 0 -25 3 -19 18 4
9 15 43 23 75 16 55 18 57 49 57 l33 0 0 -225z"/>
<path d="M5140 7630 l0 -210 65 0 65 0 0 210 0 210 -65 0 -65 0 0 -210z"/>
<path d="M4780 6805 l0 -205 65 0 65 0 0 205 0 205 -65 0 -65 0 0 -205z"/>
<path d="M5550 6933 c0 -43 -3 -135 -7 -205 l-6 -128 71 0 72 0 0 205 0 205
-65 0 -65 0 0 -77z"/>
<path d="M6300 6903 c0 -60 -3 -152 -7 -205 l-6 -98 71 0 72 0 0 205 0 205
-65 0 -65 0 0 -107z"/>
<path d="M5140 5975 l0 -205 65 0 65 0 0 205 0 205 -65 0 -65 0 0 -205z"/>
<path d="M5890 5975 l0 -205 65 0 65 0 0 205 0 205 -65 0 -65 0 0 -205z"/>
<path d="M6650 5975 l0 -205 70 0 70 0 0 205 0 205 -70 0 -70 0 0 -205z"/>
<path d="M4750 5145 l0 -205 65 0 65 0 0 205 0 205 -65 0 -65 0 0 -205z"/>
<path d="M5520 5145 l0 -205 65 0 65 0 0 205 0 205 -65 0 -65 0 0 -205z"/>
<path d="M6270 5145 l0 -205 65 0 65 0 0 205 0 205 -65 0 -65 0 0 -205z"/>
<path d="M5140 4325 l0 -205 65 0 65 0 0 205 0 205 -65 0 -65 0 0 -205z"/>
<path d="M5890 4325 l0 -205 65 0 65 0 0 205 0 205 -65 0 -65 0 0 -205z"/>
<path d="M4838 3495 l-3 -205 68 0 67 0 0 205 0 205 -65 0 -64 0 -3 -205z"/>
<path d="M5600 3495 l0 -205 70 0 70 0 0 205 0 205 -70 0 -70 0 0 -205z"/>
<path d="M7470 5677 c-74 -26 -104 -129 -57 -198 39 -59 52 -60 539 -57 l438
3 31 31 c56 56 56 142 0 198 l-31 31 -443 2 c-327 2 -451 -1 -477 -10z"/>
<path d="M73 5634 c-81 -41 -93 -158 -22 -218 l31 -26 463 0 463 0 31 30 c56
56 50 158 -12 204 -28 20 -40 21 -475 23 -392 3 -451 1 -479 -13z"/>
<path d="M6513 3344 c-44 -22 -73 -71 -73 -125 l0 -44 328 -327 327 -328 44 0
c103 0 176 112 125 190 -27 41 -607 620 -636 636 -35 18 -75 18 -115 -2z"/>
<path d="M1844 3301 c-21 -16 -168 -159 -326 -317 -299 -301 -314 -321 -300
-389 12 -64 102 -117 169 -100 19 4 136 115 345 323 353 354 350 350 309 434
-39 81 -125 103 -197 49z"/>
<path d="M3190 2518 c-124 -63 -132 -227 -17 -312 28 -21 30 -21 1120 -24
1025 -2 1094 -1 1126 15 134 69 132 263 -3 324 -39 18 -91 19 -1111 19 l-1071
0 -44 -22z"/>
<path d="M3335 1981 c-45 -19 -50 -37 -50 -177 0 -125 1 -135 22 -156 12 -12
114 -81 225 -154 l203 -132 3 -91 3 -91 -131 0 -130 0 0 95 0 95 -100 0 -100
0 0 -110 c0 -73 5 -122 14 -144 13 -31 20 -36 71 -46 38 -8 134 -11 280 -8
209 3 225 4 252 24 l28 21 3 150 c2 140 1 151 -18 168 -11 10 -112 78 -223
150 l-202 131 0 84 0 85 123 3 122 3 0 -91 0 -90 106 0 106 0 -3 120 c-6 176
16 164 -317 167 -147 1 -276 -2 -287 -6z"/>
<path d="M4140 1525 l0 -465 100 0 100 0 0 465 0 465 -100 0 -100 0 0 -465z"/>
<path d="M4542 1528 l3 -463 98 -3 97 -3 0 211 0 210 140 0 140 0 2 -207 3
-208 98 -3 97 -3 0 466 0 465 -100 0 -100 0 0 -190 0 -190 -140 0 -140 0 0
190 0 190 -100 0 -100 0 2 -462z"/>
<path d="M3517 819 c-115 -60 -123 -235 -14 -307 l41 -27 749 -3 c749 -2 750
-2 794 19 133 64 134 252 2 319 -37 19 -61 20 -786 20 -726 -1 -749 -1 -786
-21z"/>
<path d="M3782 304 c59 -100 185 -205 301 -250 189 -75 412 -44 585 81 54 38
131 125 158 177 l15 28 -540 0 -540 0 21 -36z"/>
</g>
</svg>
