<?xml version="1.0" standalone="no"?>
<!DOCTYPE svg PUBLIC "-//W3C//DTD SVG 20010904//EN"
 "http://www.w3.org/TR/2001/REC-SVG-20010904/DTD/svg10.dtd">
<svg version="1.0" xmlns="http://www.w3.org/2000/svg"
 width="536.000000pt" height="808.000000pt" viewBox="0 0 536.000000 808.000000"
 preserveAspectRatio="xMidYMid meet">

<g transform="translate(0.000000,808.000000) scale(0.100000,-0.100000)"
fill="#000000" stroke="none">
<path d="M0 4615 l0 -3465 28 13 c32 14 213 101 257 122 33 17 159 50 245 65
137 24 170 34 248 72 78 38 95 52 72 60 -5 2 8 31 30 65 34 55 44 63 70 63 25
0 30 -4 30 -25 0 -18 4 -23 15 -19 20 8 20 -20 0 -36 -12 -10 -15 -9 -15 5 0
10 -6 15 -17 13 -14 -3 -18 -15 -20 -61 -2 -50 1 -61 25 -87 36 -38 64 -45 79
-21 10 16 7 26 -20 62 -20 28 -27 44 -19 47 7 2 12 10 12 18 0 9 5 12 10 9 6
-4 8 -15 5 -25 -4 -11 1 -26 12 -37 29 -29 54 -72 51 -87 -2 -7 18 -37 44 -67
79 -90 137 -164 133 -168 -2 -2 -23 12 -47 30 -23 19 -54 40 -68 47 l-25 12
25 -22 c14 -13 41 -34 60 -48 19 -14 84 -73 145 -132 293 -283 272 -269 407
-283 79 -9 165 -54 245 -131 70 -66 81 -71 114 -54 28 15 23 30 -10 30 -20 0
-46 16 -92 58 -35 31 -93 82 -129 112 -36 30 -74 64 -85 76 -11 11 -42 39 -70
60 -27 21 -52 42 -55 45 -3 3 -27 21 -55 39 -59 41 -82 60 -149 124 -28 27
-67 59 -86 71 -44 29 -189 170 -214 210 -11 17 -37 51 -59 77 -39 47 -63 113
-45 124 5 4 15 1 21 -5 6 -6 15 -11 19 -11 13 0 9 54 -6 75 -20 30 -9 84 19
91 33 8 38 25 40 143 l2 104 44 43 c38 37 50 43 87 44 23 0 42 4 42 8 0 13 43
7 77 -11 18 -10 36 -17 40 -17 5 0 33 -16 63 -35 64 -40 157 -130 210 -205 14
-19 32 -42 40 -51 8 -8 28 -33 45 -55 76 -100 170 -166 280 -196 134 -36 186
-48 219 -48 61 0 262 -29 305 -45 l43 -15 81 47 c61 34 110 74 190 155 60 60
151 140 202 179 52 38 97 74 100 79 3 6 13 10 21 10 12 0 15 -10 12 -42 -1
-24 -9 -49 -15 -56 -7 -7 -14 -21 -14 -30 -1 -9 -2 -24 -3 -32 0 -8 -15 -19
-32 -25 -17 -5 -58 -33 -90 -62 -37 -31 -82 -59 -115 -71 -32 -11 -55 -25 -57
-35 -5 -23 37 -31 71 -14 28 15 67 12 67 -3 0 -5 -22 -19 -50 -32 -58 -27 -63
-38 -17 -38 17 0 68 -3 112 -6 l80 -6 28 63 c16 35 30 80 32 100 1 20 6 43 11
50 5 8 9 16 10 19 10 58 19 88 30 104 7 10 10 25 7 32 -3 8 0 14 6 14 6 0 11
11 11 25 0 14 4 25 10 25 5 0 14 18 20 40 6 22 15 40 20 40 9 0 12 5 62 98 15
28 32 53 38 57 5 3 10 12 10 20 0 16 72 126 79 120 2 -2 0 -12 -4 -22 -4 -10
-9 -25 -10 -33 -2 -8 -6 -31 -10 -50 -13 -69 12 -5 35 87 22 90 42 135 55 121
4 -3 1 -16 -6 -29 -10 -19 -19 -51 -44 -154 -8 -32 -27 -138 -28 -160 -1 -14
5 -21 20 -23 27 -4 39 -18 48 -60 5 -24 3 -33 -9 -38 -11 -4 -13 -14 -9 -35 3
-17 1 -29 -5 -29 -7 0 -11 -31 -11 -83 1 -46 -2 -104 -6 -129 -4 -24 -2 -62 4
-84 5 -21 15 -106 22 -189 16 -201 44 -276 166 -443 66 -89 103 -125 166 -158
26 -13 67 -40 91 -58 24 -18 65 -39 92 -46 107 -30 221 -98 324 -192 101 -94
139 -147 160 -228 6 -25 29 -75 51 -112 l40 -68 319 0 320 0 0 4040 0 4040
-2680 0 -2680 0 0 -3465z m3017 2111 c4 -3 -8 -6 -25 -6 -17 0 -34 4 -37 10
-6 10 51 7 62 -4z m148 -286 c3 -5 2 -10 -4 -10 -5 0 -13 5 -16 10 -3 6 -2 10
4 10 5 0 13 -4 16 -10z m-92 -41 c-6 -6 -19 -9 -29 -6 -16 4 -15 5 4 6 12 0
22 6 22 13 0 6 3 8 7 5 4 -4 2 -12 -4 -18z m84 15 c-3 -3 -12 -4 -19 -1 -8 3
-5 6 6 6 11 1 17 -2 13 -5z m-22 -44 c-3 -5 -12 -10 -18 -10 -7 0 -6 4 3 10
19 12 23 12 15 0z m60 -19 c3 -5 -8 -9 -24 -9 -17 1 -28 5 -25 10 7 11 41 10
49 -1z m-126 -234 c-2 -1 -15 -11 -29 -22 l-25 -20 19 23 c11 12 24 22 29 22
6 0 8 -1 6 -3z m211 -167 c0 -5 -5 -10 -11 -10 -5 0 -7 5 -4 10 3 6 8 10 11
10 2 0 4 -4 4 -10z m-15 -29 c-6 -5 -21 -12 -35 -15 l-25 -7 25 15 c28 17 50
21 35 7z m-1635 -273 c19 -6 41 -16 49 -22 8 -6 27 -11 43 -12 33 -2 43 -8 34
-22 -10 -17 -103 -5 -147 19 -70 39 -57 60 21 37z m-93 -64 c3 -8 9 -14 15
-14 5 0 6 5 3 10 -3 6 9 1 27 -9 18 -11 50 -23 71 -26 20 -4 37 -10 37 -14 0
-4 -18 -27 -40 -52 -22 -24 -40 -38 -40 -31 0 7 -5 10 -12 6 -7 -5 -8 -3 -4 5
5 7 0 19 -10 27 -14 11 -16 17 -6 20 17 8 5 24 -19 24 -11 0 -17 5 -14 10 10
17 -7 11 -20 -7 -8 -11 -14 -13 -19 -5 -4 7 -2 12 3 12 6 0 11 10 11 23 0 18
-2 19 -10 7 -7 -11 -10 -11 -10 -2 0 7 -4 11 -9 8 -5 -4 -7 2 -4 13 5 21 41
18 50 -5z m263 16 c0 -5 -4 -10 -10 -10 -5 0 -10 5 -10 10 0 6 5 10 10 10 6 0
10 -4 10 -10z m115 -70 c3 0 4 4 1 9 -9 14 75 1 101 -15 26 -16 37 -18 28 -4
-11 18 14 11 32 -9 10 -11 36 -22 58 -26 22 -4 61 -13 87 -21 42 -14 49 -14
72 1 15 10 53 18 93 21 85 4 93 6 93 15 0 4 16 3 35 -2 20 -6 42 -6 52 -1 22
10 141 -1 201 -19 37 -12 44 -11 52 1 6 9 10 10 10 3 0 -6 9 -9 22 -5 13 3 19
1 15 -5 -4 -7 15 -13 50 -18 31 -4 68 -11 81 -16 35 -14 39 -3 5 15 l-28 16
30 -7 c17 -4 48 -7 70 -6 26 1 33 -1 21 -6 -15 -6 -11 -9 20 -20 22 -7 55 -13
74 -14 19 -2 50 -10 68 -19 18 -9 40 -14 48 -11 8 3 40 -4 72 -15 31 -11 75
-23 97 -27 22 -3 71 -22 108 -41 38 -19 72 -32 77 -29 5 3 20 1 34 -5 20 -7
26 -6 26 4 0 21 20 24 68 10 38 -12 60 -26 120 -75 10 -8 19 -6 34 11 l21 23
17 -32 c9 -18 20 -28 25 -24 4 4 5 0 2 -10 -5 -12 -3 -16 5 -11 7 5 9 2 6 -8
-4 -8 4 -28 18 -44 32 -39 30 -19 -6 62 -17 37 -28 69 -25 72 3 3 -2 16 -11
30 -9 13 -11 22 -6 18 16 -10 25 13 11 30 -14 18 -3 32 13 16 6 -6 17 -28 24
-47 11 -34 11 -35 -5 -21 -22 20 -38 21 -21 1 6 -8 9 -19 6 -24 -4 -5 -1 -13
5 -17 6 -3 17 -22 25 -40 8 -19 18 -34 23 -34 5 0 11 -19 15 -41 4 -23 12 -51
19 -63 22 -39 28 -190 8 -208 -11 -10 -14 -10 -18 0 -3 6 -10 9 -15 6 -6 -4
-8 -3 -5 3 4 5 -7 22 -23 38 -15 15 -31 38 -34 50 -8 33 -193 182 -235 190
-15 3 -18 0 -14 -13 6 -15 3 -14 -15 2 -13 11 -22 14 -22 7 0 -8 -5 -9 -17 -2
-10 5 -35 12 -57 15 -21 4 -42 9 -47 12 -5 3 -9 1 -9 -5 0 -5 6 -11 13 -14 6
-2 -9 -2 -34 0 -41 5 -48 2 -78 -27 l-32 -33 22 42 c12 23 20 44 17 46 -7 7
-48 -7 -48 -16 0 -5 7 -6 15 -3 8 4 15 2 15 -3 0 -18 -12 -22 -38 -12 -18 7
-28 7 -30 0 -2 -6 -8 -8 -13 -5 -6 3 -15 1 -22 -4 -21 -16 -68 -23 -82 -12
-10 8 -18 2 -34 -25 -11 -20 -21 -39 -21 -43 0 -4 -9 -15 -20 -25 -19 -16 -20
-16 -20 3 0 27 -19 25 -29 -2 -5 -14 -10 -17 -15 -10 -4 7 -15 12 -24 11 -11
0 -12 -3 -4 -6 17 -7 15 -30 -4 -37 -8 -3 -24 -1 -35 4 -16 9 -21 7 -29 -15
-6 -15 -17 -25 -29 -25 -12 0 -19 -5 -16 -12 4 -13 -66 -68 -86 -68 -6 0 -8
-9 -4 -20 4 -11 2 -20 -4 -20 -22 0 -11 -41 14 -52 27 -12 32 -24 13 -30 -8
-3 -4 -9 10 -17 13 -7 22 -21 22 -36 0 -13 6 -30 14 -38 8 -8 14 -29 14 -46
-1 -22 6 -37 20 -47 15 -10 22 -26 22 -49 0 -39 8 -65 21 -65 5 0 9 10 10 23
0 34 41 108 69 126 20 13 23 14 16 1 -5 -8 -16 -23 -24 -32 -9 -11 -11 -18 -4
-18 6 0 15 8 21 17 5 10 13 15 16 11 4 -4 -6 -24 -23 -45 -40 -51 -54 -102
-36 -134 7 -13 13 -21 14 -17 0 4 15 -1 33 -12 40 -25 55 -26 34 -2 -10 10
-17 27 -17 36 0 16 7 17 54 13 42 -4 56 -1 60 10 3 8 2 12 -3 9 -5 -3 -12 2
-15 11 -5 12 -9 14 -18 5 -18 -18 -41 -15 -34 5 6 15 5 15 -13 -1 -15 -14 -23
-15 -40 -6 -12 6 -21 16 -21 23 0 11 86 57 107 57 6 0 18 9 28 20 29 32 52 26
47 -11 -2 -17 3 -47 13 -69 19 -43 59 -65 138 -75 48 -6 50 -6 94 41 44 45 45
48 40 95 -3 27 -4 49 -1 49 10 0 69 -32 85 -46 10 -9 14 -24 11 -41 -4 -21 -2
-25 10 -20 9 3 21 0 27 -6 8 -8 15 -6 26 9 12 16 14 16 15 3 0 -26 -58 -47
-73 -26 -5 7 -6 3 -2 -10 5 -18 1 -25 -19 -33 -14 -5 -26 -15 -26 -21 0 -6 -7
-9 -15 -6 -8 4 -17 2 -21 -4 -3 -6 -11 -8 -17 -6 -7 2 -19 1 -27 -3 -8 -4 -27
-10 -42 -14 -23 -5 -26 -4 -21 11 6 17 6 17 -10 1 -17 -16 -56 -17 -117 -3
-14 3 -44 7 -67 9 -22 3 -51 9 -63 16 -11 6 -26 10 -32 8 -6 -2 41 -28 105
-58 64 -30 114 -56 112 -59 -3 -2 -15 1 -28 7 -20 10 -43 20 -154 68 -50 21
-40 9 17 -22 52 -28 65 -46 14 -19 -16 8 -36 15 -44 15 -8 0 9 -11 38 -25 30
-14 62 -25 72 -25 11 0 21 -4 24 -9 6 -9 40 -17 123 -29 61 -9 60 -3 -5 20
-54 19 -34 22 51 8 49 -8 100 -4 182 13 22 5 75 49 75 62 0 8 9 20 20 28 13 9
18 20 14 31 -6 15 9 21 44 17 6 -1 12 3 12 9 0 6 6 10 13 9 26 -3 37 2 37 16
0 8 5 15 11 15 6 0 9 6 6 14 -3 7 -1 18 5 24 8 8 8 16 -2 27 -9 11 -9 15 -1
15 7 0 11 15 9 39 -1 22 -5 38 -10 35 -13 -8 -9 10 5 26 10 12 9 12 -4 2 -13
-10 -19 -9 -29 3 -7 8 -9 23 -6 32 4 10 4 14 0 11 -3 -4 -32 6 -64 23 -32 16
-82 34 -111 38 -30 5 -55 9 -56 10 -2 1 -10 1 -19 1 -8 0 -13 4 -10 9 4 5 -6
18 -21 30 -25 18 -26 19 -5 14 23 -6 31 12 10 20 -11 5 51 11 89 10 7 -1 10 4
7 9 -4 6 -1 8 7 6 8 -3 27 1 43 9 24 13 28 13 24 1 -7 -17 24 -17 66 1 34 14
47 8 17 -9 -12 -6 -21 -15 -21 -20 0 -5 12 -3 26 5 27 14 54 11 54 -6 0 -5
-11 -9 -24 -9 -14 0 -28 -5 -32 -11 -4 -8 3 -9 22 -5 23 5 32 2 42 -14 11 -18
10 -20 -10 -21 -22 -1 -22 -1 2 -8 25 -7 42 -41 20 -41 -7 0 -5 -6 4 -16 13
-13 21 -48 17 -76 -2 -19 31 -108 39 -103 10 6 15 -28 11 -72 -1 -13 7 -26 19
-33 14 -7 20 -21 20 -43 0 -18 6 -41 14 -52 7 -11 13 -27 14 -35 2 -29 50
-155 51 -132 1 13 6 33 13 45 13 24 14 28 24 72 4 17 17 46 29 65 12 19 25 45
29 58 4 12 12 22 17 22 14 0 11 -36 -5 -49 -22 -18 -55 -91 -49 -107 9 -23 17
-16 38 32 l20 46 1 -89 c1 -60 6 -100 17 -123 9 -19 15 -45 13 -57 -14 -72
-17 -153 -6 -153 9 0 9 -4 2 -12 -10 -13 -16 -67 -13 -124 1 -24 7 -33 23 -37
21 -6 21 -7 4 -26 -11 -12 -20 -40 -22 -71 -2 -28 -10 -73 -18 -101 -8 -27
-12 -49 -9 -49 3 0 1 -6 -4 -12 -6 -7 -10 -20 -11 -28 -2 -70 -58 -174 -107
-198 -14 -6 -25 -27 -33 -63 -7 -30 -18 -71 -24 -92 -9 -30 -9 -40 0 -46 9 -5
5 -14 -13 -31 -14 -13 -25 -31 -25 -41 0 -10 -4 -20 -9 -23 -5 -3 -12 -18 -16
-33 -15 -62 -125 -269 -125 -235 0 6 -7 12 -15 12 -11 0 -14 7 -9 25 3 14 2
25 -4 25 -5 0 -10 -6 -9 -12 0 -7 -1 -28 -1 -47 -2 -29 -4 -32 -18 -20 -13 11
-14 9 -9 -17 4 -16 3 -24 -2 -17 -6 8 -13 8 -27 -3 -17 -12 -18 -14 -3 -14 26
0 20 -13 -19 -39 -30 -21 -37 -22 -46 -10 -8 11 -9 11 -4 -3 7 -24 -3 -48 -20
-48 -12 0 -12 -4 -4 -20 6 -11 7 -20 3 -19 -4 1 -12 0 -18 -1 -5 -1 -14 -3
-20 -5 -5 -1 -18 -3 -28 -3 -10 -1 -16 -6 -12 -12 8 -13 -26 -49 -41 -43 -17
6 -18 -13 -1 -21 6 -3 -1 -2 -17 1 -21 4 -27 3 -21 -6 8 -14 -29 -54 -40 -43
-4 4 -5 -4 -3 -18 2 -16 -1 -24 -9 -23 -7 2 -13 -3 -13 -11 0 -9 -12 -16 -27
-18 -19 -2 -29 -10 -31 -23 -5 -26 -32 -57 -46 -52 -6 2 -16 -3 -23 -12 -11
-14 -13 -14 -14 4 -7 66 2 95 32 95 8 0 8 5 -2 17 -12 15 -12 16 4 10 9 -3 17
-2 17 3 0 6 -9 10 -20 10 -11 0 -20 -4 -20 -10 0 -5 -7 -7 -16 -3 -11 4 -15 0
-13 -13 3 -26 -16 -70 -25 -56 -3 6 -2 14 4 17 13 8 -6 35 -24 35 -6 0 -4 -5
4 -10 12 -7 12 -12 3 -21 -10 -10 -9 -16 5 -28 9 -9 18 -22 19 -28 5 -21 -16
-14 -28 9 -12 22 -13 22 -24 -12 -13 -38 -19 -33 -30 25 -4 22 -10 34 -12 27
-3 -6 -9 -9 -15 -6 -7 4 -7 -2 -3 -17 7 -21 6 -22 -9 -10 -9 7 -16 20 -16 27
0 8 -5 14 -11 14 -6 0 -8 -7 -5 -16 3 -9 6 -25 6 -37 0 -18 2 -19 10 -7 6 9
10 10 10 3 0 -17 -20 -27 -32 -15 -8 8 -15 7 -24 -3 -20 -19 -17 -27 6 -20 22
7 25 -10 9 -55 -9 -25 -9 -25 -5 3 2 15 0 27 -3 27 -11 0 -59 -59 -53 -65 4
-3 -1 -3 -11 1 -9 3 -17 11 -17 16 0 6 -9 8 -20 5 -13 -3 -20 0 -20 8 0 23
-16 25 -17 2 -1 -65 -2 -67 -30 -67 l-28 1 25 14 c14 8 20 14 13 15 -6 0 -18
3 -27 6 -11 4 -16 0 -16 -12 0 -11 -4 -25 -9 -32 -7 -11 -9 -10 -14 3 -4 9 -3
14 2 11 5 -4 7 4 3 16 -4 16 -7 18 -10 8 -7 -22 -24 -30 -50 -25 -13 2 -32 -1
-43 -8 -15 -9 -25 -8 -50 7 -18 10 -28 13 -24 6 11 -18 -16 -31 -32 -15 -7 8
-20 12 -28 9 -10 -4 -15 0 -15 11 0 9 -4 13 -10 10 -5 -3 -10 0 -10 9 0 8 6
16 12 18 8 3 4 9 -10 17 -22 11 -23 11 -20 -16 4 -35 -29 -46 -34 -11 -3 20
-8 23 -44 22 -40 -2 -40 -1 -36 30 3 21 1 28 -6 21 -22 -21 -18 -65 5 -65 13
0 14 -3 5 -12 -27 -27 -53 52 -30 95 6 12 5 16 -3 15 -7 -2 -16 8 -20 22 -5
17 -7 19 -8 7 -1 -10 -5 -15 -11 -12 -5 3 -10 -1 -10 -10 0 -15 -1 -15 -17 0
-10 10 -12 19 -6 23 13 9 23 52 12 52 -5 0 -9 -9 -9 -19 0 -28 -21 -37 -36
-16 -16 21 -19 19 -33 -15 -10 -24 -10 -24 -7 5 8 63 18 94 31 89 8 -3 16 4
20 17 5 15 9 18 15 9 6 -10 9 -10 15 0 5 8 1 16 -8 22 -9 5 -14 15 -11 23 5
11 0 12 -25 5 -25 -7 -31 -6 -31 6 0 8 -4 12 -10 9 -6 -3 -10 -14 -10 -24 0
-25 -26 -47 -34 -29 -3 7 -4 3 -2 -9 3 -15 0 -20 -10 -16 -8 3 -18 -4 -23 -18
-5 -13 -10 -18 -10 -11 -2 38 51 97 63 69 2 -7 5 -2 5 11 1 29 -6 28 -40 -8
-16 -16 -29 -28 -29 -25 0 3 -11 -2 -25 -11 -35 -23 -33 1 5 45 16 19 27 37
24 40 -2 3 -15 -7 -28 -22 -13 -15 -26 -24 -29 -21 -9 9 4 38 26 55 20 17 20
17 -6 12 -16 -3 -27 -1 -27 5 0 12 -58 11 -77 -1 -9 -6 -13 -2 -13 10 0 11 -3
14 -8 7 -4 -6 -15 -13 -24 -17 -10 -3 -18 -13 -18 -22 0 -21 -30 -19 -30 3 -1
28 -27 55 -46 48 -13 -5 -28 5 -54 33 -30 32 -36 46 -32 71 3 21 9 29 18 26 8
-3 11 0 8 8 -3 8 -14 12 -25 9 -10 -3 -19 0 -19 5 0 6 -9 20 -20 30 -11 10
-21 29 -22 42 -2 13 -13 34 -25 48 -13 14 -23 34 -24 46 0 12 -3 15 -6 8 -6
-15 -41 37 -46 67 -2 11 -9 27 -17 37 -13 16 -13 17 0 9 12 -7 13 -6 3 6 -31
39 -62 193 -68 344 -2 60 -4 67 -15 60 -9 -5 -11 2 -10 30 0 3 -10 16 -24 30
-13 13 -26 30 -29 37 -3 10 -7 10 -17 2 -9 -9 -17 -7 -31 7 -10 10 -19 24 -19
29 0 6 -7 10 -16 10 -8 0 -13 4 -9 9 3 5 1 12 -5 16 -5 3 -10 -1 -10 -9 0 -10
-6 -13 -15 -10 -8 4 -12 10 -9 15 3 6 -6 19 -20 30 -15 11 -24 25 -21 29 3 5
-3 14 -14 20 -12 6 -18 16 -14 26 3 9 0 14 -8 12 -7 -2 -15 7 -17 19 -2 12
-10 27 -18 33 -8 8 -14 31 -14 59 0 35 -3 42 -11 31 -7 -11 -9 -1 -7 38 2 39
0 51 -9 47 -7 -2 -13 2 -13 10 0 8 -4 15 -10 15 -18 0 -10 18 10 23 11 3 20
10 20 16 0 12 -47 35 -66 33 -6 -1 -19 7 -28 17 -14 15 -16 28 -10 53 9 40 8
107 -1 130 -5 12 -2 20 9 24 9 3 13 10 10 15 -3 5 1 12 10 15 8 3 12 12 9 20
-3 8 10 28 31 47 20 19 36 39 36 46 0 11 3 11 16 1 12 -11 15 -11 12 0 -2 8 3
14 11 15 17 0 28 25 11 25 -7 0 -7 5 2 14 10 10 17 11 26 3 10 -8 16 -7 22 2
4 8 13 10 20 6 7 -4 16 -2 20 5 4 7 13 9 19 6 6 -4 9 -12 6 -17 -4 -5 1 -9 10
-9 10 0 13 5 9 13 -4 6 4 1 19 -12 15 -13 24 -31 22 -42 -2 -10 -1 -19 3 -20
31 -4 57 -9 122 -25 55 -14 110 -19 205 -18 134 0 182 9 270 49 28 12 72 31
100 43 l49 20 25 -24 c17 -17 28 -21 35 -14 16 16 30 12 16 -5 -10 -12 -9 -15
6 -15 11 0 26 4 33 9 9 6 22 6 32 1 18 -10 16 -45 -7 -89 -14 -26 -10 -46 8
-35 5 3 8 -2 7 -12 -2 -11 0 -25 5 -33 6 -10 2 -20 -12 -32 -12 -9 -22 -23
-22 -30 0 -7 -6 -20 -14 -28 -8 -9 -26 -50 -40 -91 -14 -41 -42 -113 -62 -160
-30 -69 -38 -98 -38 -152 -1 -80 16 -104 79 -113 22 -3 45 -8 52 -10 6 -2 13
1 15 7 3 8 13 8 34 1 22 -7 30 -17 35 -44 4 -19 7 -28 8 -21 0 8 6 10 14 5 6
-4 17 -8 22 -8 6 0 10 -3 10 -7 0 -11 39 -37 48 -31 4 2 14 -1 22 -7 8 -7 15
-8 15 -3 0 5 18 16 40 23 22 7 40 17 40 22 0 13 44 27 51 16 4 -6 22 -10 42
-11 25 -1 38 -7 45 -21 11 -27 22 -7 11 22 -5 12 -15 22 -24 22 -8 0 -15 5
-15 10 0 6 18 10 40 10 22 0 40 -5 40 -10 0 -6 -6 -9 -12 -8 -7 2 -14 -6 -16
-17 -2 -16 7 -25 37 -39 23 -9 44 -15 49 -12 16 10 13 88 -4 107 -14 15 -14
21 -4 34 7 8 24 15 37 15 22 0 24 3 19 24 -7 27 21 46 36 24 6 -10 8 -9 8 3 0
17 27 29 68 29 27 0 28 -11 1 -36 -12 -10 -32 -17 -50 -16 -20 2 -29 -2 -29
-13 0 -22 4 -30 13 -27 16 5 6 -18 -12 -27 -49 -27 -25 -115 32 -117 23 -1 28
2 24 17 -3 11 -2 17 3 14 10 -6 22 23 15 35 -3 5 -1 11 4 15 6 3 7 13 4 23 -5
15 -3 14 17 -3 l24 -20 -16 26 c-23 36 -8 59 35 53 39 -5 57 8 91 68 30 55 31
58 10 58 -8 0 -31 12 -49 26 -31 23 -41 26 -97 21 -35 -2 -64 -10 -66 -16 -3
-9 -8 -9 -17 -1 -10 8 -23 7 -52 -5 -75 -32 -168 -18 -221 33 -46 46 -75 61
-127 65 -22 2 -46 6 -52 10 -6 4 -14 0 -17 -9 -3 -8 -10 -12 -16 -9 -5 3 -10
-1 -10 -9 0 -9 -11 -16 -27 -18 -16 -2 -27 -8 -26 -13 2 -14 -36 -13 -63 2
-14 8 -21 21 -20 40 1 15 -2 36 -7 46 -6 13 -3 17 10 18 11 0 13 3 6 6 -20 7
-15 20 10 27 18 5 20 8 7 16 -13 8 -12 10 3 10 10 0 17 8 17 21 0 12 4 17 11
14 6 -4 8 -13 5 -20 -8 -21 22 -26 44 -7 11 9 28 17 37 17 17 0 42 75 43 129
0 41 22 97 35 92 7 -2 13 9 14 27 1 18 3 52 5 77 1 24 -3 63 -9 85 -7 22 -10
63 -8 90 2 28 5 91 6 141 1 55 7 97 14 106 7 8 10 18 6 21 -3 4 2 7 13 7 18 1
18 1 1 14 -16 13 -16 14 5 21 l23 8 -22 4 c-31 6 -29 27 5 40 l27 11 -32 1
c-35 1 -57 21 -24 21 12 0 21 5 21 10 0 6 -13 10 -30 10 -32 0 -41 16 -12 23
13 4 11 5 -5 6 -13 1 -23 7 -23 16 0 8 -7 15 -15 15 -9 0 -15 9 -15 21 0 19
-1 19 -16 5 -21 -22 -52 -22 -34 -1 16 19 1 39 -40 54 -26 8 -34 6 -60 -15
-25 -21 -30 -23 -30 -9 0 9 9 30 21 46 11 16 15 29 9 29 -6 0 -8 5 -4 11 4 7
1 10 -7 7 -13 -4 -25 -20 -66 -84 -10 -15 -10 -12 -2 16 12 45 12 77 0 65 -5
-6 -11 -19 -13 -30 -2 -11 -10 -19 -17 -17 -8 2 -11 -3 -8 -12 4 -9 2 -18 -3
-21 -6 -4 -10 10 -10 31 0 34 1 36 13 19 13 -16 14 -16 15 12 0 17 7 47 16 67
8 20 12 36 8 36 -8 0 -55 -74 -67 -105 -7 -17 -9 -13 -17 20 -8 36 -58 93 -58
66 0 -5 5 -13 10 -16 6 -3 10 -12 10 -18 -1 -7 -10 -1 -20 12 -18 21 -25 20
-21 -1 2 -15 -13 -8 -41 19 -30 29 -68 32 -151 14 -24 -6 -39 -5 -44 2 -4 6
-1 7 7 2 8 -5 11 -4 7 2 -7 11 -243 10 -271 -2 -19 -8 -19 -8 -3 15 21 30 22
44 2 36 -8 -3 -15 -1 -15 4 0 6 -12 10 -26 10 -14 0 -23 4 -19 10 4 6 10 8 15
5 4 -3 6 5 2 17 -3 12 -7 17 -10 10 -2 -7 -8 -9 -13 -6 -6 3 -6 11 2 20 6 7 9
21 5 29 -3 9 -2 13 4 10 6 -3 10 3 10 14 0 11 10 28 23 38 13 10 32 39 42 66
15 40 23 48 54 56 66 17 76 18 103 4 15 -7 30 -13 33 -13z m2479 14 c3 -8 2
-12 -4 -9 -6 3 -10 10 -10 16 0 14 7 11 14 -7z m-2674 -13 c0 -14 -56 -95 -77
-112 -13 -10 -11 -5 5 21 13 19 30 50 39 68 16 31 33 43 33 23z m-1110 -101
c0 -5 -4 -10 -10 -10 -5 0 -10 5 -10 10 0 6 5 10 10 10 6 0 10 -4 10 -10z
m3364 -156 c3 -8 2 -12 -4 -9 -6 3 -10 10 -10 16 0 14 7 11 14 -7z m-2324 -30
c0 -8 6 -11 17 -7 13 5 15 2 10 -11 -4 -10 -7 -22 -7 -27 0 -5 -7 -9 -15 -9
-9 0 -15 9 -15 25 0 16 -6 25 -16 25 -8 0 -13 4 -10 8 8 14 36 10 36 -4z m470
-74 c0 -5 -2 -10 -4 -10 -3 0 -8 5 -11 10 -3 6 -1 10 4 10 6 0 11 -4 11 -10z
m1530 -54 c0 -2 -7 -7 -16 -10 -8 -3 -12 -2 -9 4 6 10 25 14 25 6z m45 -6 c3
-5 2 -10 -4 -10 -5 0 -13 5 -16 10 -3 6 -2 10 4 10 5 0 13 -4 16 -10z m-240
-10 c3 -5 1 -10 -4 -10 -6 0 -11 5 -11 10 0 6 2 10 4 10 3 0 8 -4 11 -10z
m-2980 -40 c-3 -5 -12 -10 -18 -10 -7 0 -6 4 3 10 19 12 23 12 15 0z m3095
-15 c0 -8 -4 -15 -8 -15 -5 0 -9 7 -9 15 0 8 4 15 9 15 4 0 8 -7 8 -15z
m-1865 -5 c3 -5 2 -10 -4 -10 -5 0 -13 5 -16 10 -3 6 -2 10 4 10 5 0 13 -4 16
-10z m42 4 c-3 -3 -12 -4 -19 -1 -8 3 -5 6 6 6 11 1 17 -2 13 -5z m-1362 -14
c-3 -5 -11 -10 -16 -10 -6 0 -7 5 -4 10 3 6 11 10 16 10 6 0 7 -4 4 -10z
m2150 -8 c-3 -3 -11 0 -18 7 -9 10 -8 11 6 5 10 -3 15 -9 12 -12z m1110 -2
c-3 -5 -12 -10 -18 -10 -7 0 -6 4 3 10 19 12 23 12 15 0z m-495 -95 c0 -8 -4
-15 -10 -15 -5 0 -7 7 -4 15 4 8 8 15 10 15 2 0 4 -7 4 -15z m-1421 -21 c-12
-15 -10 -16 17 -10 21 5 36 3 45 -6 8 -8 29 -20 47 -27 17 -7 32 -17 32 -22 0
-5 9 -4 20 3 10 7 22 9 25 6 10 -10 -5 -49 -16 -42 -5 3 -7 8 -5 12 2 4 -16 7
-40 7 -30 0 -44 -4 -44 -13 0 -9 -7 -11 -22 -6 -13 4 -37 6 -55 5 -22 -1 -36
5 -50 22 -15 20 -25 23 -53 19 -20 -2 -31 -1 -27 4 5 5 16 9 25 10 39 2 82 17
82 29 0 11 11 20 29 24 2 1 -3 -6 -10 -15z m-116 -71 c-7 -2 -19 -2 -25 0 -7
3 -2 5 12 5 14 0 19 -2 13 -5z m2479 -18 c2 3 3 -9 0 -25 -2 -16 -8 -27 -14
-24 -5 3 -6 14 -3 24 3 10 1 21 -5 25 -5 3 -10 12 -10 18 0 7 6 4 14 -5 7 -10
15 -16 18 -13z m5 -155 c0 -44 -3 -80 -8 -80 -9 0 -22 59 -18 81 2 8 0 24 -5
36 -7 21 11 56 25 47 3 -2 6 -39 6 -84z m-1913 44 c26 -16 68 -41 92 -55 25
-14 63 -43 85 -65 37 -35 41 -37 34 -14 -7 24 -7 24 11 7 16 -14 17 -19 5 -26
-8 -5 -10 -14 -6 -22 5 -8 -11 4 -34 27 -23 22 -74 58 -114 79 l-72 37 -115
-2 c-63 -1 -122 -1 -131 -1 -9 0 -30 8 -48 19 -32 19 -32 19 -9 27 47 16 105
23 179 21 65 -2 84 -7 123 -32z m1421 21 l50 -15 -45 7 c-25 3 -72 9 -105 13
l-60 7 55 1 c30 1 78 -5 105 -13z m925 -15 c0 -5 -2 -10 -4 -10 -3 0 -8 5 -11
10 -3 6 -1 10 4 10 6 0 11 -4 11 -10z m-876 -25 c61 -14 115 -30 120 -36 8 -8
0 -9 -29 -5 -27 5 -50 2 -68 -7 -24 -12 -37 -12 -92 -1 -36 8 -75 14 -88 14
-12 0 -32 1 -44 1 -13 0 -25 4 -28 10 -4 5 -13 9 -21 9 -10 0 -12 -5 -8 -12 6
-10 3 -9 -8 0 -9 7 -32 14 -51 15 -26 2 -33 5 -25 14 25 31 201 30 342 -2z
m-1482 -89 c30 -13 55 -31 134 -95 7 -6 15 -7 18 -4 3 4 6 1 6 -5 0 -7 -6 -12
-14 -12 -21 0 -30 -18 -17 -34 7 -8 22 -11 39 -8 43 8 25 -2 -102 -57 -128
-55 -189 -70 -91 -22 57 28 56 42 -1 21 -22 -9 -29 -8 -36 5 -12 21 -29 19
-21 -2 5 -14 3 -15 -7 -6 -7 6 -19 9 -27 6 -8 -3 -19 0 -24 8 -8 12 -10 12
-18 0 -7 -10 -9 -11 -13 -1 -3 10 -9 11 -24 2 -15 -8 -23 -7 -36 5 -10 9 -36
17 -58 19 -63 4 -78 21 -36 40 19 9 25 8 34 -6 5 -9 16 -17 24 -18 7 -1 37 -5
66 -8 31 -4 62 -2 75 4 12 5 30 13 39 16 34 10 59 67 55 119 -2 26 -3 47 -2
47 2 0 18 -7 37 -14z m-1603 -17 c-16 -10 -23 -4 -14 10 3 6 11 8 17 5 6 -4 5
-9 -3 -15z m3513 -23 c-3 -5 -9 -1 -13 10 -12 31 -10 39 5 19 8 -11 12 -24 8
-29z m-562 24 c0 -5 -4 -10 -10 -10 -5 0 -10 5 -10 10 0 6 5 10 10 10 6 0 10
-4 10 -10z m1060 0 c0 -5 -2 -10 -4 -10 -3 0 -8 5 -11 10 -3 6 -1 10 4 10 6 0
11 -4 11 -10z m-3920 -124 c0 -3 -4 -8 -10 -11 -5 -3 -10 -1 -10 4 0 6 5 11
10 11 6 0 10 -2 10 -4z m1810 -90 c0 -3 -4 -8 -10 -11 -5 -3 -10 -1 -10 4 0 6
5 11 10 11 6 0 10 -2 10 -4z m-1925 -226 c-3 -5 -10 -10 -16 -10 -5 0 -9 5 -9
10 0 6 7 10 16 10 8 0 12 -4 9 -10z m211 -97 c24 -79 26 -98 20 -181 -7 -107
-5 -113 67 -190 49 -51 51 -55 53 -118 3 -71 -14 -132 -27 -97 -4 10 -8 30 -8
46 -1 15 -7 27 -14 27 -23 0 -73 134 -92 245 -4 21 -14 45 -23 52 -9 7 -12 13
-6 13 8 0 6 24 -7 78 -21 89 -24 183 -7 200 7 7 13 12 14 12 2 0 15 -39 30
-87z m-211 37 c3 -5 -3 -15 -15 -22 -11 -7 -20 -18 -20 -24 0 -6 -18 -17 -40
-24 -23 -8 -45 -21 -50 -29 -8 -14 -9 -14 -15 2 -9 21 14 54 25 36 6 -8 17 -5
38 11 17 13 29 27 26 32 -8 13 5 28 26 28 10 0 22 -4 25 -10z m306 -82 c6 -11
13 -60 16 -107 2 -47 8 -97 13 -111 5 -14 11 -38 15 -53 l6 -28 -31 23 c-51
38 -74 83 -72 147 3 136 23 185 53 129z m3799 -43 c15 -19 12 -23 -27 -34
l-30 -9 14 29 c16 33 25 36 43 14z m-4063 -5 c8 0 11 -4 8 -10 -3 -5 -32 -10
-63 -10 -53 1 -56 2 -37 16 13 10 31 13 49 10 16 -3 35 -6 43 -6z m3863 -50
c0 -15 -5 -12 -26 11 -19 22 -19 22 4 10 12 -6 22 -16 22 -21z m-3950 -9 c-5
-11 -15 -23 -21 -26 -5 -4 -14 -18 -19 -31 -10 -26 -30 -33 -30 -9 0 8 -6 12
-14 9 -11 -4 -14 2 -14 26 1 39 11 45 43 24 22 -14 25 -14 25 -1 0 9 8 18 18
20 9 3 18 5 20 6 1 0 -2 -8 -8 -18z m95 -11 c3 -6 -4 -14 -17 -19 -29 -11 -35
-6 -18 14 14 17 26 19 35 5z m-221 -68 c-10 -39 -13 -42 -40 -42 -24 0 -28 9
-18 45 3 14 15 21 35 22 27 2 29 0 23 -25z m246 8 c0 -5 -2 -10 -4 -10 -3 0
-8 5 -11 10 -3 6 -1 10 4 10 6 0 11 -4 11 -10z m-72 -42 c-7 -13 -11 -26 -10
-30 1 -4 -4 -5 -12 -2 -7 3 -19 -2 -26 -11 -7 -8 -22 -15 -33 -15 -19 0 -19 2
-7 14 20 20 83 64 93 65 4 1 2 -9 -5 -21z m-341 -295 c-9 -9 -20 -13 -24 -9
-4 4 -1 11 7 16 25 16 35 11 17 -7z m2423 -5 c0 -6 -6 -5 -15 2 -8 7 -15 14
-15 16 0 2 7 1 15 -2 8 -4 15 -11 15 -16z m-1706 -146 c45 -39 43 -55 -2 -17
-18 15 -36 23 -46 19 -13 -5 -16 1 -16 30 0 24 -6 40 -19 48 -15 9 -17 15 -8
30 10 16 14 13 33 -30 11 -26 38 -62 58 -80z m-586 76 c-3 -7 -12 -14 -21 -16
-12 -2 -15 1 -11 12 7 19 38 22 32 4z m262 4 c0 -4 -13 -13 -29 -19 -23 -8
-31 -8 -35 2 -3 8 0 16 7 19 20 8 57 7 57 -2z m-278 -74 c-8 -8 -9 -4 -5 13 4
13 8 18 11 10 2 -7 -1 -18 -6 -23z m4118 22 c0 -5 -7 -10 -15 -10 -8 0 -15 5
-15 10 0 6 7 10 15 10 8 0 15 -4 15 -10z m-3740 -21 c0 -5 -8 -14 -19 -20 -10
-7 -16 -20 -14 -29 8 -31 -42 -109 -70 -110 -4 0 0 15 10 33 9 17 17 41 18 52
1 11 2 34 3 52 1 21 8 33 20 35 23 5 52 -2 52 -13z m-270 -5 c0 -8 -5 -12 -10
-9 -6 4 -8 11 -5 16 9 14 15 11 15 -7z m158 -1 c-9 -10 -19 -28 -22 -40 -7
-21 -26 -33 -26 -15 0 15 40 72 51 72 8 0 7 -6 -3 -17z m254 -5 c-7 -7 -12 -8
-12 -2 0 14 12 26 19 19 2 -3 -1 -11 -7 -17z m3643 4 c0 -18 -20 -15 -23 4 -3
10 1 15 10 12 7 -3 13 -10 13 -16z m-3325 -45 c-27 -17 -48 -22 -98 -21 -34 0
-67 5 -72 10 -6 6 13 8 54 6 45 -3 72 0 92 12 44 23 64 19 24 -7z m3440 3 c0
-5 -4 -10 -10 -10 -5 0 -10 5 -10 10 0 6 5 10 10 10 6 0 10 -4 10 -10z m-3907
-101 c4 -16 3 -18 -9 -8 -16 13 -19 29 -5 29 5 0 11 -9 14 -21z m837 -13 c0
-2 -7 -7 -16 -10 -8 -3 -12 -2 -9 4 6 10 25 14 25 6z m58 -59 c6 3 12 -2 12
-10 0 -7 9 -22 20 -32 12 -10 18 -25 15 -33 -3 -8 0 -21 6 -29 7 -7 13 -27 14
-43 3 -37 -18 -30 -36 11 -6 17 -23 37 -35 46 -13 8 -22 19 -19 23 3 5 -1 11
-7 13 -10 4 -10 7 0 15 19 13 -10 34 -34 26 -14 -5 -12 -2 6 14 20 17 27 18
35 8 6 -7 16 -11 23 -9z m3702 -123 c0 -17 -24 -29 -40 -19 -8 5 -6 13 6 26
18 20 34 17 34 -7z m-650 -34 c0 -5 -4 -10 -9 -10 -6 0 -13 5 -16 10 -3 6 1
10 9 10 9 0 16 -4 16 -10z m-2935 -40 c3 -5 1 -10 -4 -10 -6 0 -11 5 -11 10 0
6 2 10 4 10 3 0 8 -4 11 -10z m2511 -31 c10 -17 -23 -46 -37 -32 -7 7 -9 19
-6 27 7 18 33 21 43 5z m-321 -271 c-60 -87 -61 -78 -2 14 17 27 32 46 34 44
3 -2 -12 -28 -32 -58z m-63 -90 c-7 -7 -12 -8 -12 -2 0 14 12 26 19 19 2 -3
-1 -11 -7 -17z m-40 -55 c-42 -53 -102 -116 -107 -112 -2 2 23 33 56 69 32 36
59 68 59 73 0 4 5 7 11 7 6 0 -3 -17 -19 -37z m-1668 -12 c3 -5 -1 -14 -8 -20
-12 -10 -13 -8 -9 8 6 23 9 25 17 12z m1596 5 c0 -3 -4 -8 -10 -11 -5 -3 -10
-1 -10 4 0 6 5 11 10 11 6 0 10 -2 10 -4z m-1360 -125 c-12 -23 -25 -27 -36
-9 -4 7 -3 8 4 4 6 -4 17 2 24 13 16 26 23 19 8 -8z m21 -34 c-8 -8 -11 -7
-11 4 0 9 3 19 7 23 4 4 9 2 11 -4 3 -7 -1 -17 -7 -23z m42 -87 c3 -11 1 -20
-4 -20 -5 0 -9 9 -9 20 0 11 2 20 4 20 2 0 6 -9 9 -20z m859 -27 c5 -7 5 -14
-1 -17 -13 -9 -34 31 -25 46 6 9 9 8 12 -2 3 -8 9 -20 14 -27z m-885 5 c-3 -8
-6 -5 -6 6 -1 11 2 17 5 13 3 -3 4 -12 1 -19z m113 -8 c0 -5 -4 -10 -10 -10
-5 0 -10 5 -10 10 0 6 5 10 10 10 6 0 10 -4 10 -10z m-37 -25 c-3 -9 -8 -14
-10 -11 -3 3 -2 9 2 15 9 16 15 13 8 -4z m152 -44 c3 -5 1 -12 -5 -16 -5 -3
-10 1 -10 9 0 18 6 21 15 7z m-1509 -298 c-4 -16 -9 -45 -13 -65 -7 -46 -33
-52 -33 -8 0 32 30 99 44 100 4 0 5 -12 2 -27z m2194 -23 c0 -5 -5 -10 -11
-10 -5 0 -7 5 -4 10 3 6 8 10 11 10 2 0 4 -4 4 -10z m-2230 -190 c0 -5 -4 -10
-10 -10 -5 0 -10 5 -10 10 0 6 5 10 10 10 6 0 10 -4 10 -10z m2097 -51 c-9 -6
-15 -14 -12 -18 2 -5 -6 -11 -20 -13 -14 -3 -25 -3 -25 -1 0 10 46 42 60 42
12 0 11 -2 -3 -10z m-2173 -115 c4 -9 4 -19 2 -21 -8 -8 -26 8 -26 23 0 19 16
18 24 -2z m2106 6 c0 -5 -2 -10 -4 -10 -3 0 -8 5 -11 10 -3 6 -1 10 4 10 6 0
11 -4 11 -10z"/>
<path d="M1598 5482 c9 -10 19 -17 21 -16 6 5 -20 34 -30 34 -5 0 -1 -8 9 -18z"/>
<path d="M2375 5450 l-70 -6 65 -2 c36 -1 72 3 80 8 8 5 11 9 5 8 -5 -1 -41
-4 -80 -8z"/>
<path d="M3048 5423 c6 -2 18 -2 25 0 6 3 1 5 -13 5 -14 0 -19 -2 -12 -5z"/>
<path d="M3375 5150 c-27 -30 -12 -34 15 -5 13 14 19 25 13 25 -5 0 -18 -9
-28 -20z"/>
<path d="M3690 5156 c0 -2 7 -7 16 -10 8 -3 12 -2 9 4 -6 10 -25 14 -25 6z"/>
<path d="M3212 5070 c0 -14 2 -19 5 -12 2 6 2 18 0 25 -3 6 -5 1 -5 -13z"/>
<path d="M2290 4365 c-10 -12 -10 -15 4 -15 9 0 16 7 16 15 0 8 -2 15 -4 15
-2 0 -9 -7 -16 -15z"/>
<path d="M3625 4230 c-3 -5 -1 -10 4 -10 6 0 11 5 11 10 0 6 -2 10 -4 10 -3 0
-8 -4 -11 -10z"/>
<path d="M1241 4094 c0 -11 3 -14 6 -6 3 7 2 16 -1 19 -3 4 -6 -2 -5 -13z"/>
<path d="M1997 3567 c-3 -8 -26 -24 -51 -37 -74 -35 -141 -102 -156 -154 -7
-25 -9 -53 -5 -63 6 -17 7 -17 21 1 8 11 14 28 14 39 0 10 4 15 10 12 5 -3 7
-20 4 -38 -2 -18 -1 -26 3 -17 9 17 53 25 53 10 0 -5 12 -21 27 -35 15 -14 23
-25 16 -25 -8 0 -7 -9 4 -31 8 -16 13 -33 10 -36 -8 -8 33 -46 66 -60 15 -7
27 -17 27 -23 0 -5 4 -9 8 -8 12 4 82 -72 82 -89 0 -9 6 -13 13 -10 9 3 14 -5
14 -27 2 -58 6 -70 32 -99 14 -16 26 -39 26 -51 0 -11 5 -20 12 -19 7 2 10 -4
6 -13 -3 -9 0 -14 8 -12 10 2 14 -8 13 -34 -1 -34 1 -36 18 -27 11 6 22 8 26
5 3 -3 0 -6 -6 -6 -7 0 -12 -8 -12 -17 0 -15 2 -16 10 -3 7 12 13 11 34 -10
21 -19 26 -21 26 -7 0 24 21 21 27 -3 3 -11 9 -17 14 -14 5 3 9 0 9 -6 0 -6 4
-9 9 -6 5 4 11 1 13 -5 4 -13 58 6 58 21 0 5 9 10 20 10 11 0 20 5 20 10 0 6
-6 10 -13 10 -7 0 -21 6 -31 13 -16 12 -17 17 -6 36 7 13 7 21 2 17 -6 -3 -14
-1 -18 6 -5 8 -10 6 -15 -8 -7 -17 -8 -17 -8 4 -1 25 -16 30 -25 7 -3 -8 -13
-15 -23 -15 -15 0 -14 4 7 20 26 20 59 22 73 5 5 -5 5 1 2 14 -6 21 -5 23 11
16 11 -5 35 -8 54 -7 19 0 40 -4 46 -9 8 -7 17 -4 28 6 14 15 16 15 16 1 0 -9
7 -16 15 -16 18 0 20 21 3 39 -11 10 -10 11 5 6 9 -4 17 -17 17 -31 0 -32 16
-31 23 2 3 20 -1 27 -18 34 -13 5 -25 15 -28 22 -5 11 -7 11 -15 0 -7 -11 -14
-8 -31 14 -11 14 -21 31 -21 37 0 5 -7 4 -15 -3 -13 -10 -15 -9 -15 10 0 16
-4 20 -15 16 -8 -3 -15 -1 -15 4 0 10 -45 32 -102 50 -27 8 -43 8 -58 0 -17
-9 -20 -8 -20 9 0 11 4 21 9 23 5 2 4 28 -2 60 -16 87 -4 94 101 63 13 -5 22
-3 22 3 0 44 96 58 127 18 l19 -24 22 25 c21 24 25 24 100 18 54 -5 83 -13 98
-26 26 -24 26 -24 70 6 43 29 109 33 153 11 22 -12 36 -12 69 -4 35 9 46 8 68
-7 20 -13 37 -15 70 -10 44 6 44 6 44 -24 0 -28 2 -30 20 -19 28 18 36 3 23
-43 l-10 -40 31 6 c29 5 29 4 6 -5 -38 -17 -59 -45 -53 -71 4 -19 3 -21 -6 -9
-9 13 -13 13 -33 1 -16 -10 -23 -10 -26 -2 -7 22 -24 11 -18 -13 5 -19 2 -24
-12 -21 -22 3 -62 -18 -84 -44 -10 -12 -25 -21 -33 -21 -9 0 -13 -5 -9 -11 4
-7 0 -9 -13 -5 -24 8 -48 -17 -39 -40 4 -11 10 -13 19 -7 6 6 23 7 37 3 35 -8
139 33 205 83 30 22 115 105 115 112 0 15 92 95 109 95 12 0 30 9 41 20 11 11
22 15 25 10 10 -16 28 -11 21 5 -7 18 5 19 24 3 12 -11 12 -10 3 2 -15 22 -25
70 -14 70 5 0 3 19 -4 43 -8 26 -18 42 -28 41 -8 -1 -14 5 -13 14 2 29 -22 23
-29 -7 -4 -17 -11 -33 -16 -36 -10 -7 -49 4 -129 34 -79 31 -220 60 -220 47 0
-6 -5 -3 -11 6 -12 21 -79 22 -79 1 0 -7 -4 -13 -9 -13 -5 0 -8 8 -7 17 1 12
-7 18 -21 19 -15 1 -23 -4 -23 -15 -1 -20 -24 -51 -38 -51 -6 0 -9 -7 -6 -15
4 -8 1 -15 -5 -15 -6 0 -11 6 -11 14 0 8 -4 17 -9 21 -6 3 -9 -6 -8 -19 1 -14
-2 -26 -8 -28 -15 -4 -18 51 -4 68 9 11 8 14 -4 14 -17 0 -31 -26 -28 -52 1
-9 -3 -19 -9 -23 -5 -3 -10 0 -10 7 0 7 -7 2 -16 -10 -16 -23 -49 -28 -74 -12
-12 7 -12 10 -1 10 7 0 11 6 8 14 -3 8 -1 16 6 19 17 5 -22 42 -63 59 -19 8
-40 13 -47 11 -6 -2 -22 3 -35 11 -23 15 -50 15 -118 1 -13 -2 -56 -7 -95 -11
-38 -3 -86 -10 -105 -15 -49 -13 -114 -11 -128 3 -18 18 -15 41 4 34 8 -3 12
-2 9 4 -3 6 -1 11 4 11 16 2 23 4 53 17 20 8 29 21 36 54 5 24 7 45 6 46 -1 2
-18 -4 -38 -13 -20 -10 -49 -15 -65 -13 -17 2 -30 2 -29 -1 0 -3 0 -13 -1 -21
-1 -12 -3 -12 -11 2 -6 10 -22 16 -40 16 -25 -1 -30 -5 -30 -25 0 -25 -17 -32
-26 -10 -3 8 -20 13 -42 12 -39 0 -39 0 -41 -65 -1 -32 -2 -33 -17 -18 -11 11
-14 23 -9 35 8 17 7 44 -1 52 -2 2 -10 -2 -18 -8 -12 -10 -19 -10 -36 2 -22
15 -22 15 -1 22 11 3 23 15 26 25 3 11 18 29 32 40 18 14 23 24 16 31 -7 7
-12 6 -16 -4z m186 -117 c3 -11 1 -20 -4 -20 -5 0 -9 9 -9 20 0 11 2 20 4 20
2 0 6 -9 9 -20z m-278 -20 c3 -5 1 -10 -4 -10 -6 0 -11 5 -11 10 0 6 2 10 4
10 3 0 8 -4 11 -10z m-5 -35 c0 4 9 0 21 -11 12 -10 30 -18 40 -16 14 2 19 -3
19 -17 0 -12 -4 -21 -10 -21 -5 0 -10 5 -10 11 0 5 -5 7 -10 4 -8 -5 -7 -11 1
-21 17 -20 6 -17 -21 6 -13 11 -32 20 -43 20 -13 0 -17 5 -13 15 3 9 -1 18 -9
21 -7 3 -11 12 -8 20 5 13 8 12 24 -2 11 -9 19 -13 19 -9z m45 5 c3 -5 1 -10
-4 -10 -6 0 -11 5 -11 10 0 6 2 10 4 10 3 0 8 -4 11 -10z m265 -70 c0 -5 -4
-10 -10 -10 -5 0 -10 5 -10 10 0 6 5 10 10 10 6 0 10 -4 10 -10z m90 -295 c24
-13 24 -13 -18 -12 -26 1 -42 7 -42 15 0 16 29 15 60 -3z m64 -247 c-3 -4 -12
-8 -20 -8 -8 0 -14 4 -14 8 0 4 9 8 19 8 11 0 17 -4 15 -8z"/>
<path d="M2430 3545 c-11 -13 -10 -14 4 -9 9 3 16 10 16 15 0 13 -6 11 -20 -6z"/>
<path d="M3591 3495 c18 -25 39 -51 46 -57 7 -6 13 -17 13 -24 0 -8 4 -14 9
-14 12 0 61 -87 62 -109 0 -10 2 -12 6 -3 2 6 10 9 16 5 9 -5 9 -3 1 8 -5 8
-10 29 -10 47 1 17 -2 32 -6 32 -5 0 -8 9 -8 20 0 28 -111 140 -139 140 -21 0
-21 -2 10 -45z"/>
<path d="M2459 3503 l-1 -28 -7 25 c-5 18 -9 21 -15 11 -7 -10 -10 -10 -16 -1
-13 20 -32 0 -26 -26 7 -25 -8 -34 -17 -11 -6 14 -27 -9 -27 -32 0 -11 3 -11
15 -1 8 7 22 10 30 6 9 -3 18 1 21 9 4 9 19 15 41 15 29 0 33 3 24 14 -6 7 -9
21 -5 30 3 9 1 16 -5 16 -6 0 -11 -12 -12 -27z"/>
<path d="M3127 3493 c-13 -13 -7 -21 13 -16 11 3 20 9 20 14 0 10 -24 12 -33
2z"/>
<path d="M2530 3479 c0 -5 5 -7 10 -4 6 3 10 8 10 11 0 2 -4 4 -10 4 -5 0 -10
-5 -10 -11z"/>
<path d="M3350 3476 c0 -2 7 -9 15 -16 9 -7 15 -8 15 -2 0 5 -7 12 -15 16 -8
3 -15 4 -15 2z"/>
<path d="M3260 3458 c0 -4 4 -8 9 -8 6 0 12 4 15 8 3 5 -1 9 -9 9 -8 0 -15 -4
-15 -9z"/>
<path d="M4171 3400 c-1 -8 -4 -26 -7 -40 -5 -22 -4 -23 6 -7 6 10 9 28 7 40
-2 12 -5 15 -6 7z"/>
<path d="M4044 3355 c11 -8 22 -12 25 -9 6 6 -19 24 -34 24 -5 -1 -1 -7 9 -15z"/>
<path d="M3004 3352 c-11 -7 -29 -52 -21 -52 2 0 13 8 25 18 20 18 17 47 -4
34z"/>
<path d="M4020 3320 c0 -12 -6 -20 -13 -18 -7 2 -13 -1 -14 -7 -3 -16 41 -6
54 12 14 18 8 33 -13 33 -8 0 -14 -9 -14 -20z"/>
<path d="M4147 3294 c-4 -4 -7 -17 -7 -28 1 -19 1 -20 11 -3 11 19 8 43 -4 31z"/>
<path d="M1861 3234 c0 -11 3 -14 6 -6 3 7 2 16 -1 19 -3 4 -6 -2 -5 -13z"/>
<path d="M4116 3183 c-6 -14 -5 -15 5 -6 7 7 10 15 7 18 -3 3 -9 -2 -12 -12z"/>
<path d="M2601 3087 c-1 -27 -47 -67 -76 -67 -15 0 -36 11 -50 25 l-23 26 -21
-29 -21 -29 50 -7 c27 -4 61 -4 74 0 14 3 39 2 54 -4 l29 -10 -4 46 c-5 53
-11 76 -12 49z"/>
<path d="M2836 3057 c-8 -53 -1 -87 18 -87 10 0 11 13 4 58 -12 81 -14 83 -22
29z"/>
<path d="M4067 3032 c-14 -15 -14 -19 -3 -19 8 0 17 9 19 19 3 10 4 18 3 18
-2 0 -10 -8 -19 -18z"/>
<path d="M3066 3004 c-8 -20 -8 -19 24 -29 l25 -8 -20 24 c-11 13 -20 25 -21
27 -1 2 -4 -5 -8 -14z"/>
<path d="M3740 2999 c0 -5 5 -7 10 -4 6 3 10 8 10 11 0 2 -4 4 -10 4 -5 0 -10
-5 -10 -11z"/>
<path d="M4047 2979 c4 -16 8 -17 14 -7 13 19 11 28 -5 28 -9 0 -12 -7 -9 -21z"/>
<path d="M4016 2885 c-9 -26 -7 -32 5 -12 6 10 9 21 6 23 -2 3 -7 -2 -11 -11z"/>
<path d="M2190 2851 c0 -5 5 -13 10 -16 6 -3 10 -2 10 4 0 5 -4 13 -10 16 -5
3 -10 2 -10 -4z"/>
<path d="M3992 2838 c-14 -14 -16 -42 -3 -34 7 5 23 46 17 46 -1 0 -7 -5 -14
-12z"/>
<path d="M2565 2770 c3 -5 8 -10 11 -10 2 0 4 5 4 10 0 6 -5 10 -11 10 -5 0
-7 -4 -4 -10z"/>
<path d="M2597 2732 c-5 -23 -47 -37 -47 -16 0 8 -4 14 -9 14 -5 0 -8 -12 -7
-27 2 -16 6 -27 10 -25 3 1 15 2 27 2 11 0 18 4 15 9 -3 4 3 16 14 26 21 19
26 35 11 35 -5 0 -11 -8 -14 -18z"/>
<path d="M2648 2706 c-15 -18 -19 -19 -27 -6 -8 12 -12 10 -19 -10 -11 -27 -6
-44 9 -34 5 3 7 10 3 15 -3 6 3 5 15 -3 12 -7 21 -16 21 -19 0 -4 14 -9 30
-11 17 -3 30 -1 30 4 0 4 5 8 10 8 6 0 10 -7 10 -16 0 -10 6 -14 15 -10 10 3
15 -1 15 -12 1 -15 2 -14 12 3 7 11 18 26 25 33 16 16 17 36 2 26 -8 -4 -9 1
-4 16 5 15 4 20 -4 16 -6 -4 -20 -2 -32 5 -17 8 -20 8 -14 -1 5 -9 1 -10 -15
-5 -17 5 -21 4 -15 -6 6 -9 3 -11 -9 -6 -10 4 -24 1 -32 -8 -9 -8 -20 -15 -25
-15 -16 0 -10 18 12 33 11 8 17 17 12 20 -4 3 -16 -5 -25 -17z"/>
<path d="M3024 2699 c-3 -6 -1 -16 5 -22 8 -8 11 -8 11 2 0 7 5 9 13 5 8 -5 8
-2 -2 9 -16 20 -18 20 -27 6z"/>
<path d="M3086 2703 c-10 -11 5 -23 29 -23 13 0 27 6 31 13 4 6 4 9 0 5 -5 -4
-18 -3 -31 2 -13 5 -26 6 -29 3z"/>
<path d="M2828 2678 c-11 -16 -13 -30 -7 -39 7 -12 9 -12 9 0 0 9 6 7 19 -7
10 -12 21 -19 24 -15 4 3 14 0 22 -7 13 -11 18 -10 30 7 10 14 22 19 35 16 14
-4 20 0 20 10 0 8 3 24 6 34 5 17 5 17 -9 0 -10 -12 -17 -14 -22 -8 -4 8 -12
8 -27 0 -16 -9 -23 -7 -35 10 -17 25 -35 28 -26 4 5 -16 4 -16 -9 1 -14 17
-15 17 -30 -6z"/>
<path d="M2070 2676 c0 -9 7 -12 20 -9 11 3 17 9 14 14 -8 14 -34 10 -34 -5z"/>
<path d="M1975 2650 c-3 -5 -2 -10 4 -10 5 0 13 5 16 10 3 6 2 10 -4 10 -5 0
-13 -4 -16 -10z"/>
<path d="M2021 2616 c-9 -10 -7 -15 9 -19 25 -6 32 4 15 20 -10 10 -16 9 -24
-1z"/>
<path d="M1980 2609 c0 -5 5 -7 10 -4 6 3 10 8 10 11 0 2 -4 4 -10 4 -5 0 -10
-5 -10 -11z"/>
<path d="M2085 2590 c-3 -6 0 -13 8 -16 9 -3 13 -15 10 -32 -3 -26 -3 -26 7
-4 7 16 7 30 0 43 -12 22 -16 23 -25 9z"/>
<path d="M1970 2579 c-23 -10 -24 -11 -6 -21 18 -10 35 2 36 25 0 8 2 8 -30
-4z"/>
<path d="M2165 2530 c3 -5 10 -10 16 -10 5 0 9 5 9 10 0 6 -7 10 -16 10 -8 0
-12 -4 -9 -10z"/>
<path d="M3600 2530 c0 -5 5 -10 11 -10 5 0 7 5 4 10 -3 6 -8 10 -11 10 -2 0
-4 -4 -4 -10z"/>
<path d="M2130 2520 c0 -5 5 -10 10 -10 6 0 10 5 10 10 0 6 -4 10 -10 10 -5 0
-10 -4 -10 -10z"/>
<path d="M2066 2503 c-11 -11 -6 -23 9 -23 8 0 15 4 15 9 0 13 -16 22 -24 14z"/>
<path d="M2175 2500 c3 -5 8 -10 11 -10 2 0 4 5 4 10 0 6 -5 10 -11 10 -5 0
-7 -4 -4 -10z"/>
<path d="M3600 2486 c0 -2 7 -9 15 -16 12 -10 15 -10 15 4 0 9 -7 16 -15 16
-8 0 -15 -2 -15 -4z"/>
<path d="M3482 2460 c7 -11 16 -20 21 -20 4 0 3 9 -3 20 -6 11 -15 20 -20 20
-6 0 -5 -9 2 -20z"/>
<path d="M3550 2444 c0 -5 10 -20 21 -34 16 -19 19 -21 15 -6 -4 11 -1 23 6
27 7 4 9 12 4 16 -5 4 -11 2 -13 -5 -4 -10 -8 -10 -19 -1 -8 6 -14 8 -14 3z"/>
<path d="M3400 2406 c0 -2 7 -7 16 -10 8 -3 12 -2 9 4 -6 10 -25 14 -25 6z"/>
<path d="M3180 2370 c1 -9 132 -82 137 -76 3 3 -2 8 -11 12 -9 3 -17 18 -17
33 -1 17 -3 20 -6 8 -4 -14 -8 -16 -19 -6 -8 6 -14 17 -14 23 0 8 -14 12 -35
12 -19 -1 -35 -3 -35 -6z"/>
<path d="M2521 2365 c1 -19 18 -51 18 -35 0 8 -4 22 -9 30 -5 8 -9 11 -9 5z"/>
<path d="M3145 2350 c3 -5 10 -10 16 -10 5 0 9 5 9 10 0 6 -7 10 -16 10 -8 0
-12 -4 -9 -10z"/>
<path d="M3520 2350 c0 -5 5 -10 10 -10 6 0 10 5 10 10 0 6 -4 10 -10 10 -5 0
-10 -4 -10 -10z"/>
<path d="M2430 2323 c0 -5 5 -15 10 -23 8 -12 10 -11 10 8 0 12 -4 22 -10 22
-5 0 -10 -3 -10 -7z"/>
<path d="M3452 2295 c0 -16 2 -22 5 -12 2 9 2 23 0 30 -3 6 -5 -1 -5 -18z"/>
<path d="M2650 2114 c0 -8 5 -12 10 -9 6 4 8 11 5 16 -9 14 -15 11 -15 -7z"/>
<path d="M2720 2089 c0 -5 5 -7 10 -4 6 3 10 8 10 11 0 2 -4 4 -10 4 -5 0 -10
-5 -10 -11z"/>
<path d="M2120 4389 c0 -5 5 -7 10 -4 6 3 10 8 10 11 0 2 -4 4 -10 4 -5 0 -10
-5 -10 -11z"/>
<path d="M3551 2054 c0 -11 3 -14 6 -6 3 7 2 16 -1 19 -3 4 -6 -2 -5 -13z"/>
<path d="M3531 1984 c0 -11 3 -14 6 -6 3 7 2 16 -1 19 -3 4 -6 -2 -5 -13z"/>
<path d="M3550 1897 c0 -22 16 -47 31 -47 3 0 1 16 -5 35 -12 40 -26 46 -26
12z"/>
<path d="M3456 1722 c-22 -42 -47 -86 -57 -97 -9 -11 -33 -51 -53 -90 -20 -38
-43 -77 -52 -86 -22 -24 -1 -32 27 -11 13 10 42 29 64 41 68 37 135 171 135
269 0 74 -17 67 -64 -26z"/>
<path d="M1120 1676 c0 -9 5 -16 10 -16 6 0 10 4 10 9 0 6 -4 13 -10 16 -5 3
-10 -1 -10 -9z"/>
<path d="M3312 1320 c14 -19 18 -34 12 -40 -5 -5 -43 -10 -84 -12 -69 -3 -75
-5 -78 -25 -4 -28 29 -38 100 -30 50 6 50 6 33 -13 -10 -11 -27 -20 -38 -20
-10 0 -33 -6 -50 -14 -18 -8 -39 -16 -47 -18 -9 -3 1 -10 23 -17 33 -11 41
-11 57 4 22 20 47 11 29 -11 -6 -8 -8 -14 -3 -14 5 -1 -2 -7 -15 -14 l-24 -14
29 -15 29 -16 -45 6 c-25 3 -52 9 -60 13 -8 5 -63 16 -122 25 -95 15 -110 15
-140 2 -18 -8 -40 -15 -48 -15 -43 1 -605 -383 -674 -461 -24 -26 -17 -35 18
-21 15 5 38 10 52 10 13 0 24 3 24 8 0 9 93 83 176 142 l62 43 78 -68 c44 -37
122 -108 174 -157 88 -84 99 -92 171 -113 85 -26 104 -35 164 -75 22 -15 72
-44 112 -65 77 -40 104 -76 106 -139 1 -41 -24 -92 -45 -88 -24 4 -43 -25 -28
-43 6 -8 9 -23 5 -35 -6 -19 -2 -20 79 -20 l84 0 -15 32 c-16 30 -15 32 5 46
15 10 22 25 22 46 0 35 -7 46 -35 62 -26 14 -30 46 -11 76 8 13 16 46 18 73 3
49 2 50 -27 53 -31 4 -55 18 -55 33 0 4 11 20 25 35 19 21 22 30 14 46 -7 14
-16 17 -32 12 -37 -11 -41 -10 -44 11 -2 13 22 48 72 104 46 52 75 92 75 106
0 26 -32 41 -145 70 l-70 18 -40 -36 c-47 -43 -58 -46 -49 -12 5 22 3 25 -21
25 -22 0 -26 4 -22 20 7 26 2 25 -25 -2 l-23 -23 -3 31 -3 30 -101 13 c-55 8
-120 13 -144 13 -24 -1 -46 3 -49 8 -4 6 -24 10 -46 10 -28 0 -39 4 -36 13 2
7 23 12 57 12 l53 0 14 42 c12 36 75 103 96 103 9 0 -21 -80 -43 -118 -24 -40
-26 -40 113 -50 96 -7 110 -6 117 9 5 9 21 24 35 33 25 16 26 16 23 -1 -2 -13
4 -19 25 -21 23 -3 28 -8 24 -23 -7 -25 1 -24 31 4 l24 22 -4 -29 c-3 -29 -1
-30 112 -73 104 -39 116 -42 127 -27 14 19 35 10 26 -12 -7 -19 24 -54 49 -54
24 0 34 -26 18 -45 -17 -20 -34 -19 -26 1 8 20 -10 44 -33 44 -25 0 -54 -35
-90 -107 -17 -34 -31 -65 -31 -68 0 -9 69 -5 75 5 13 21 22 8 21 -32 -1 -45 4
-49 50 -34 30 9 41 -30 13 -47 -10 -6 -19 -20 -19 -29 0 -10 -9 -22 -21 -28
-16 -9 -19 -19 -17 -52 4 -49 28 -66 28 -19 0 16 4 32 8 35 5 3 9 -16 9 -42 0
-26 3 -65 8 -86 8 -37 7 -39 -13 -34 -29 8 -29 -14 -1 -59 27 -43 22 -47 -48
-52 -24 -2 -13 -30 20 -55 27 -21 45 -26 88 -25 30 0 48 3 41 6 -7 3 -20 18
-28 35 -13 25 -14 32 -2 39 23 15 39 10 80 -25 22 -19 46 -32 54 -29 8 3 14
-1 14 -11 0 -14 16 -16 116 -16 l115 0 -22 40 c-13 22 -51 70 -86 107 -92 99
-187 243 -188 288 -1 17 -15 67 -32 113 -18 45 -28 82 -24 82 4 0 26 -17 49
-38 76 -69 172 -104 172 -64 0 10 -4 22 -9 28 -5 5 -27 50 -49 99 -21 50 -55
114 -75 144 -63 91 -48 95 49 11 63 -55 104 -74 104 -50 0 5 -9 14 -20 20 -10
6 -34 32 -51 58 -18 26 -48 65 -68 87 -20 22 -53 66 -74 97 -20 32 -54 83 -74
113 -65 98 -207 215 -260 215 l-24 0 23 -30z m54 -227 c-2 -24 -18 -34 -33
-21 -11 9 -9 13 9 23 13 7 24 13 24 14 1 1 1 -7 0 -16z m-31 -53 c-3 -5 -13
-10 -21 -10 -8 0 -14 5 -14 10 0 6 9 10 21 10 11 0 17 -4 14 -10z m225 -125
c0 -8 -4 -15 -10 -15 -5 0 -10 7 -10 15 0 8 5 15 10 15 6 0 10 -7 10 -15z
m-500 -309 c0 -3 -4 -8 -10 -11 -5 -3 -10 -1 -10 4 0 6 5 11 10 11 6 0 10 -2
10 -4z m238 -138 c-4 -31 -48 -39 -48 -9 0 17 12 25 43 30 5 0 7 -9 5 -21z
m19 -114 c-3 -3 -12 -4 -19 -1 -8 3 -5 6 6 6 11 1 17 -2 13 -5z m350 -187 c27
-23 66 -42 70 -35 2 3 53 -63 53 -68 0 -9 -47 14 -67 32 -14 13 -36 24 -48 24
-27 0 -75 36 -75 56 0 22 35 17 67 -9z"/>
<path d="M2890 1272 c0 -24 42 -46 85 -43 17 1 18 3 5 11 -8 5 -25 10 -37 10
-12 0 -29 7 -37 16 -9 8 -16 11 -16 6z"/>
<path d="M3020 1130 c0 -5 10 -12 23 -14 120 -26 195 -30 176 -11 -6 6 -157
35 -181 35 -10 0 -18 -4 -18 -10z"/>
<path d="M2596 552 c-9 -14 53 -54 72 -47 14 6 12 10 -13 31 -31 25 -50 30
-59 16z"/>
<path d="M3434 459 c-3 -6 -2 -15 3 -20 13 -13 43 -1 43 17 0 16 -36 19 -46 3z"/>
<path d="M2722 230 c0 -19 2 -27 5 -17 2 9 2 25 0 35 -3 9 -5 1 -5 -18z"/>
<path d="M3454 245 c-7 -18 14 -47 27 -39 5 3 9 16 9 30 0 27 -27 34 -36 9z"/>
<path d="M3080 140 c9 -33 47 -90 59 -90 4 0 14 -11 21 -25 7 -14 17 -25 21
-25 15 0 -14 65 -43 96 -15 17 -26 33 -23 36 3 3 -5 13 -19 21 -24 16 -24 16
-16 -13z"/>
</g>
</svg>
